Run_50001
nRows=4
nColumns=164

# SIMM Motion File Header:
name Run_50001
datacolumns 164
datarows 4
otherdata 1
range 0.02500000 0.05000000
endheader
time	pelvis_tilt	pelvis_list	pelvis_rotation	pelvis_tx	pelvis_ty	pelvis_tz	hip_flexion_r	hip_adduction_r	hip_rotation_r	knee_angle_r	ankle_angle_r	hip_flexion_l	hip_adduction_l	hip_rotation_l	knee_angle_l	ankle_angle_l	lumbar_extension	lumbar_bending	lumbar_rotation	arm_flex_r	arm_add_r	arm_rot_r	elbow_flex_r	pro_sup_r	arm_flex_l	arm_add_l	arm_rot_l	elbow_flex_l	pro_sup_l	subtalar_angle_r	mtp_angle_r	subtalar_angle_l	mtp_angle_l	wrist_flex_r	wrist_dev_r	wrist_flex_l	wrist_dev_l	LASI_tx	LASI_ty	LASI_tz	RASI_tx	RASI_ty	RASI_tz	LPSI_tx	LPSI_ty	LPSI_tz	RPSI_tx	RPSI_ty	RPSI_tz	RTH1_tx	RTH1_ty	RTH1_tz	RTH2_tx	RTH2_ty	RTH2_tz	RTH3_tx	RTH3_ty	RTH3_tz	LTH1_tx	LTH1_ty	LTH1_tz	LTH2_tx	LTH2_ty	LTH2_tz	LTH3_tx	LTH3_ty	LTH3_tz	RTB1_tx	RTB1_ty	RTB1_tz	RTB2_tx	RTB2_ty	RTB2_tz	RTB3_tx	RTB3_ty	RTB3_tz	LTB1_tx	LTB1_ty	LTB1_tz	LTB2_tx	LTB2_ty	LTB2_tz	LTB3_tx	LTB3_ty	LTB3_tz	RCAL_tx	RCAL_ty	RCAL_tz	RTOE_tx	RTOE_ty	RTOE_tz	RMT5_tx	RMT5_ty	RMT5_tz	LCAL_tx	LCAL_ty	LCAL_tz	LTOE_tx	LTOE_ty	LTOE_tz	LMT5_tx	LMT5_ty	LMT5_tz	LACR_tx	LACR_ty	LACR_tz	RACR_tx	RACR_ty	RACR_tz	CLAV_tx	CLAV_ty	CLAV_tz	C7_tx	C7_ty	C7_tz	RUA1_tx	RUA1_ty	RUA1_tz	RUA2_tx	RUA2_ty	RUA2_tz	RUA3_tx	RUA3_ty	RUA3_tz	RLEL_tx	RLEL_ty	RLEL_tz	RMEL_tx	RMEL_ty	RMEL_tz	LUA1_tx	LUA1_ty	LUA1_tz	LUA2_tx	LUA2_ty	LUA2_tz	LUA3_tx	LUA3_ty	LUA3_tz	LLEL_tx	LLEL_ty	LLEL_tz	LMEL_tx	LMEL_ty	LMEL_tz	RFAsuperior_tx	RFAsuperior_ty	RFAsuperior_tz	RFAradius_tx	RFAradius_ty	RFAradius_tz	RFAulna_tx	RFAulna_ty	RFAulna_tz	LFAsuperior_tx	LFAsuperior_ty	LFAsuperior_tz	LFAradius_tx	LFAradius_ty	LFAradius_tz	LFAulna_tx	LFAulna_ty	LFAulna_tz
      0.02500000	     -5.03077897	     -0.98287154	      4.42709271	      1.15217120	      0.97477731	     -0.31280148	     54.68250596	     -2.93133610	     -6.22915460	   -116.68137145	     -4.30693440	      0.54401637	      5.37327617	      8.27847183	    -28.91160312	     11.94655828	     -8.39309159	     -3.06064958	    -13.31345595	    -41.71119463	     -9.82305389	    -16.38830505	     58.88861836	     61.76517986	    -10.72780543	    -22.45096004	     -1.45565483	    129.95657375	     85.75074110	      0.00000000	      0.00000000	      0.00000000	      0.00000000	      0.00000000	      0.00000000	      0.00000000	      0.00000000	      1.15467648	      0.97834253	     -0.42716877	      1.16256967	      0.98890445	     -0.18987358	      0.99094116	      1.02567263	     -0.35160752	      0.99494218	      1.02704855	     -0.25443287	      1.16258790	      0.85066492	     -0.12480664	      1.32344134	      0.79623085	     -0.14287339	      1.33510131	      0.69713833	     -0.14775524	      1.05930535	      0.81575004	     -0.47089733	      1.12780825	      0.70534902	     -0.45864828	      1.04026764	      0.58849039	     -0.43383989	      1.33134935	      0.53004964	     -0.21222946	      1.24822310	      0.55290046	     -0.16143568	      1.15935976	      0.46524171	     -0.22272003	      1.02246557	      0.34941815	     -0.35757524	      0.93678434	      0.28722990	     -0.39940284	      0.90171432	      0.19871709	     -0.32905913	      0.97701677	      0.50574049	     -0.26488518	      1.05807663	      0.31105694	     -0.25711504	      1.01756324	      0.32011720	     -0.15588998	      0.72980628	      0.13539607	     -0.32402706	      0.92260690	      0.07494541	     -0.27275902	      0.91154176	      0.03886668	     -0.37811124	      1.17616519	      1.44975903	     -0.52425468	      1.14114262	      1.47455731	     -0.15912852	      1.22726297	      1.41377382	     -0.30417682	      1.11760474	      1.49879846	     -0.35496577	      1.08700484	      1.41529733	     -0.11407110	      1.05867692	      1.33343596	     -0.12011696	      0.97970595	      1.36488439	     -0.13760365	      0.90151753	      1.28542884	     -0.10533960	      0.90838471	      1.26792008	     -0.16875873	      1.15464169	      1.36463786	     -0.57198421	      1.09456798	      1.30339540	     -0.55576689	      1.15943034	      1.26116552	     -0.59298239	      1.11001438	      1.15294847	     -0.62473181	      1.06795771	      1.14029583	     -0.56268356	      0.93719310	      1.20810512	     -0.05968344	      0.95505891	      1.02608433	     -0.02577094	      0.89202781	      1.02253893	     -0.05400201	      1.18971495	      1.17532223	     -0.59898381	      1.31718737	      1.23215223	     -0.47552022	      1.34218775	      1.16973602	     -0.47670707
      0.03333300	     -5.18417986	     -2.26573645	      3.48728108	      1.15463658	      0.98102277	     -0.31227530	     56.03688433	     -1.38637326	     -6.71566785	   -111.11726973	     -3.88608330	     -2.97518968	      3.62756754	      8.07716372	    -26.39153930	      6.90124472	     -7.66976335	     -1.32345971	    -13.58155010	    -42.86708056	     -9.86820500	    -18.11957137	     60.04632250	     61.09122262	     -9.65139801	    -21.88643865	     -1.13583144	    133.05461105	     86.48453981	      0.00000000	      0.00000000	      0.00000000	      0.00000000	      0.00000000	      0.00000000	      0.00000000	      0.00000000	      1.15782487	      0.98183566	     -0.42644098	      1.16335344	      0.99647478	     -0.19007200	      0.99421750	      1.03074573	     -0.35370821	      0.99598093	      1.03366288	     -0.25687901	      1.16549624	      0.86160340	     -0.12297500	      1.32580385	      0.81028611	     -0.14335500	      1.34017189	      0.71088577	     -0.14937834	      1.05864962	      0.81989757	     -0.47166858	      1.11896293	      0.70741654	     -0.45622849	      1.02212415	      0.59710098	     -0.43327152	      1.34966679	      0.53615084	     -0.21193622	      1.26427587	      0.54986114	     -0.16220824	      1.18662331	      0.45169635	     -0.22322760	      0.99436029	      0.35759152	     -0.36031412	      0.90658195	      0.29844392	     -0.40304521	      0.87041982	      0.20958183	     -0.33268817	      1.00183706	      0.47011154	     -0.26555065	      1.10658052	      0.28789643	     -0.25773470	      1.06288420	      0.29127194	     -0.15617747	      0.69784374	      0.15333947	     -0.32752890	      0.88260225	      0.07582790	     -0.27259893	      0.86794530	      0.03882649	     -0.37814561	      1.17976000	      1.45930065	     -0.52168557	      1.13633167	      1.48151653	     -0.15873926	      1.22576568	      1.42147762	     -0.30122824	      1.11696526	      1.50516499	     -0.35460097	      1.08091424	      1.42413799	     -0.11524282	      1.05246591	      1.34232688	     -0.12030818	      0.97418147	      1.37317671	     -0.14131715	      0.89414620	      1.29479095	     -0.11215362	      0.90429093	      1.27577009	     -0.17460740	      1.16204490	      1.37325267	     -0.56995530	      1.10222820	      1.31170516	     -0.55564046	      1.16939540	      1.27022144	     -0.59012670	      1.12301274	      1.15981149	     -0.62159278	      1.07943943	      1.14727334	     -0.56005183	      0.92756328	      1.21886725	     -0.06315522	      0.94615546	      1.03738776	     -0.02553975	      0.88503438	      1.03203128	     -0.05686695	      1.20091693	      1.18711380	     -0.59477086	      1.31891360	      1.25690328	     -0.46849954	      1.34880309	      1.19672741	     -0.46758664
      0.04166700	     -5.46917387	     -3.81088858	      2.37961027	      1.15734894	      0.98721282	     -0.31151623	     57.05877594	      0.49955836	     -7.34059506	   -105.08294559	     -3.97645674	     -6.37829566	      1.66346461	      7.40421242	    -23.57672150	      1.07392797	     -6.80603441	      0.71477909	    -13.67047791	    -44.09366361	    -10.10862471	    -19.59660827	     61.28449046	     60.68897390	     -8.74017954	    -21.31487324	     -0.75008731	    136.07400204	     87.22535998	      0.00000000	      0.00000000	      0.00000000	      0.00000000	      0.00000000	      0.00000000	      0.00000000	      0.00000000	      1.16161967	      0.98528099	     -0.42552227	      1.16408712	      1.00445060	     -0.18992655	      0.99797003	      1.03616283	     -0.35630876	      0.99718146	      1.04060291	     -0.25964060	      1.16801669	      0.87253060	     -0.12131031	      1.32788915	      0.82349968	     -0.14403993	      1.34399263	      0.72377861	     -0.15079398	      1.05830610	      0.82430144	     -0.47260313	      1.11022517	      0.71016691	     -0.45386635	      1.00512815	      0.60622560	     -0.43347443	      1.36704812	      0.54154829	     -0.21118492	      1.28005512	      0.54620584	     -0.16291232	      1.21438171	      0.43836957	     -0.22353992	      0.96704393	      0.36694050	     -0.36326550	      0.87762101	      0.31026393	     -0.40691604	      0.84133898	      0.22067504	     -0.33680025	      1.02872083	      0.43507237	     -0.26606317	      1.15556636	      0.26659439	     -0.25819923	      1.10953526	      0.26378555	     -0.15692694	      0.66880429	      0.17186089	     -0.33096090	      0.84350218	      0.07660272	     -0.27287140	      0.82513855	      0.03932435	     -0.37870674	      1.18341202	      1.46887538	     -0.51901591	      1.13148703	      1.48855501	     -0.15842964	      1.22425933	      1.42945828	     -0.29812131	      1.11643963	      1.51168597	     -0.35414530	      1.07503632	      1.43291399	     -0.11627707	      1.04649887	      1.35114875	     -0.12054306	      0.96887972	      1.38160036	     -0.14452225	      0.88723129	      1.30411270	     -0.11841852	      0.90015632	      1.28417521	     -0.18019818	      1.16929001	      1.38225186	     -0.56790663	      1.10992579	      1.32045797	     -0.55584819	      1.17891531	      1.27967110	     -0.58716069	      1.13522311	      1.16725224	     -0.61858250	      1.08993796	      1.15482459	     -0.55779938	      0.91861156	      1.22942679	     -0.06665150	      0.93793314	      1.04832722	     -0.02590045	      0.87828389	      1.04159601	     -0.05960505	      1.21114540	      1.19929391	     -0.59064437	      1.31932287	      1.28102872	     -0.46191970	      1.35370136	      1.22317655	     -0.45893416
      0.05000000	     -5.96038815	     -5.44286716	      1.02296602	      1.16039799	      0.99337507	     -0.31042998	     57.84458460	      2.66362758	     -7.92476373	    -98.61171727	     -4.31205730	     -9.49896247	     -0.28615873	      6.06690996	    -20.62886743	     -5.51707373	     -5.74935449	      2.85926937	    -13.53818052	    -45.38207267	    -10.56974375	    -20.68400299	     62.56002548	     60.70444591	     -8.21058598	    -20.76376267	     -0.26358864	    139.07366166	     87.98513289	      0.00000000	      0.00000000	      0.00000000	      0.00000000	      0.00000000	      0.00000000	      0.00000000	      0.00000000	      1.16630268	      0.98857541	     -0.42414445	      1.16476091	      1.01288504	     -0.18930741	      1.00238822	      1.04208894	     -0.35965471	      0.99871455	      1.04792827	     -0.26289315	      1.16990474	      0.88347442	     -0.12010126	      1.32941202	      0.83518825	     -0.14495309	      1.34579516	      0.73505460	     -0.15198405	      1.05833062	      0.82913699	     -0.47381407	      1.10172988	      0.71388303	     -0.45160412	      0.98993279	      0.61617186	     -0.43474380	      1.38293028	      0.54587200	     -0.21039212	      1.29549700	      0.54146980	     -0.16339647	      1.24287195	      0.42549230	     -0.22354970	      0.94132341	      0.37810877	     -0.36649217	      0.85092345	      0.32295623	     -0.41100994	      0.81580325	      0.23211289	     -0.34148905	      1.05882618	      0.40116498	     -0.26612746	      1.20520565	      0.24833544	     -0.25863966	      1.15836081	      0.23870604	     -0.15844198	      0.64464830	      0.19134586	     -0.33444078	      0.80620328	      0.07769802	     -0.27385772	      0.78395237	      0.04102009	     -0.37992016	      1.18713081	      1.47841072	     -0.51614752	      1.12663583	      1.49559044	     -0.15824765	      1.22274274	      1.43770588	     -0.29478492	      1.11611360	      1.51834227	     -0.35356928	      1.06948363	      1.44151242	     -0.11711988	      1.04088353	      1.35976949	     -0.12087294	      0.96392299	      1.39017497	     -0.14701103	      0.88100259	      1.31333183	     -0.12380047	      0.89593926	      1.29331839	     -0.18532364	      1.17623794	      1.39178633	     -0.56582107	      1.11745773	      1.32981822	     -0.55645966	      1.18767066	      1.28963162	     -0.58408955	      1.14620082	      1.17546066	     -0.61579670	      1.09896230	      1.16308081	     -0.55616115	      0.91076893	      1.23960412	     -0.07014887	      0.93083276	      1.05869217	     -0.02707174	      0.87204907	      1.05113825	     -0.06218202	      1.21986024	      1.21194963	     -0.58671569	      1.31772256	      1.30402136	     -0.45610751	      1.35592302	      1.24861368	     -0.45105866
